<svg width="97" height="106" viewBox="0 0 97 106" fill="none" xmlns="http://www.w3.org/2000/svg">
<g filter="url(#filter0_d_167_91)">
<circle cx="49.5" cy="42.5" r="40.5" fill="#0D163F"/>
<circle cx="49.5" cy="42.5" r="41.5" stroke="white" stroke-width="2"/>
</g>
<path d="M84.8757 10.1875C84.2314 8.44623 81.7686 8.44624 81.1243 10.1875L79.5208 14.5208L75.1875 16.1243C73.4462 16.7686 73.4462 19.2314 75.1875 19.8757L79.5208 21.4792L81.1243 25.8125C81.7686 27.5538 84.2314 27.5538 84.8757 25.8125L86.4792 21.4792L90.8125 19.8757C92.5538 19.2314 92.5538 16.7686 90.8125 16.1243L86.4792 14.5208L84.8757 10.1875Z" fill="#E2DD37" stroke="white" stroke-width="2"/>
<path d="M13.4689 68.2673L14.4068 67.9202C13.9235 66.6143 12.0765 66.6143 11.5932 67.9202L10.6012 70.6012L7.92022 71.5932L8.26725 72.5311L7.92022 71.5932C6.61429 72.0765 6.61429 73.9235 7.92022 74.4068L10.6012 75.3988L11.5932 78.0798C12.0765 79.3857 13.9235 79.3857 14.4068 78.0798L15.3988 75.3988L18.0798 74.4068C19.3857 73.9235 19.3857 72.0765 18.0798 71.5932L15.3988 70.6012L14.4068 67.9202L13.4689 68.2673ZM10.8168 75.4786C10.8166 75.4785 10.8164 75.4785 10.8162 75.4784L10.8168 75.4786L10.9903 75.0097L10.8168 75.4786ZM15.4786 75.1832C15.4785 75.1834 15.4784 75.1837 15.4783 75.1839L15.4786 75.1832Z" fill="#E2DD37" stroke="white" stroke-width="2"/>
<path d="M27.5452 29.5896C28.8433 28.9283 30.9495 28.843 31.969 28.468C33.6209 27.8604 35.6697 25.8954 35.6697 25.8954C35.6697 25.8954 35.2201 31.4027 32.5727 33.6505C31.2324 34.7886 28.7677 35.5137 26.9052 33.9066C25.706 32.8718 26.2471 30.2509 27.5452 29.5896Z" fill="white"/>
<path d="M48.5907 39C47.8472 39 47.2064 38.8418 46.6684 38.5253C46.1334 38.2054 45.7209 37.7475 45.4307 37.1515C45.1436 36.5522 45 35.835 45 35C45 34.1987 45.1451 33.4983 45.4352 32.899C45.7254 32.2997 46.1349 31.8333 46.6639 31.5C47.1928 31.1667 47.8169 31 48.5363 31C49.0622 31 49.5382 31.0909 49.9644 31.2727C50.3905 31.4545 50.7547 31.7189 51.057 32.0657C51.3592 32.4091 51.592 32.8266 51.7552 33.3182C51.9184 33.8098 52 34.3636 52 34.9798C52 35.3356 51.7093 35.6227 51.3536 35.6184L47.4663 35.5714V34.0909H49.0715C49.4169 34.0909 49.5427 33.8505 49.5427 33.505C49.446 33.3333 49.3146 33.2003 49.1483 33.1061C48.9851 33.0084 48.7992 32.9596 48.5907 32.9596C48.3882 32.9596 48.2023 33.0084 48.033 33.1061C47.8638 33.2003 47.7278 33.3316 47.625 33.5C47.5253 33.6683 47.4724 33.8653 47.4663 34.0909V35.7475C47.4663 35.9966 47.5132 36.2189 47.6069 36.4141C47.7006 36.6094 47.8351 36.7626 48.0104 36.8737C48.1857 36.9848 48.3972 37.0404 48.6451 37.0404C48.8174 37.0404 48.9745 37.0135 49.1166 36.9596C49.2617 36.9057 49.3856 36.8283 49.4883 36.7273C49.6731 36.5396 49.8926 36.3535 50.156 36.3535H50.592C51.3344 36.3535 51.9262 37.0458 51.5106 37.6609C51.4885 37.6936 51.4658 37.7258 51.4424 37.7576C51.1492 38.1515 50.7608 38.4579 50.2772 38.6768C49.7966 38.8923 49.2345 39 48.5907 39Z" fill="url(#paint0_radial_167_91)"/>
<path d="M52 43C52 41.9702 52.3218 40.9662 52.9203 40.1283L54.9911 37.2292V37.1875H52.1068C52.1068 35.9794 53.0862 35 54.2943 35H57.8932C57.8932 36.1404 57.5513 37.2547 56.9116 38.1988L55.1691 40.7708V40.8125H58C58 42.0206 57.0206 43 55.8125 43H52Z" fill="url(#paint1_radial_167_91)"/>
<path d="M57.3125 40.2305L57.3104 40.2348C56.9243 41.0387 56.3083 41.6748 55.4397 42.1439C54.5829 42.6066 53.4289 42.8565 51.9451 42.8565H46.4167V36.4041C46.4167 33.3508 48.8919 30.8757 51.9451 30.8757C53.4103 30.8757 54.5459 31.1904 55.393 31.776L55.393 31.776L55.3991 31.7801C56.2717 32.3645 56.9019 33.1317 57.2992 34.0904L57.2991 34.0905L57.3025 34.0981C57.7293 35.0813 57.9454 36.1564 57.9454 37.3297C57.9454 38.416 57.7311 39.3796 57.3125 40.2305ZM46.4167 61.5416V52.2321H50.4586C54.1406 52.2321 57.3356 51.6259 60.0282 50.3943L60.0298 50.3935C62.7377 49.1434 64.8365 47.3956 66.304 45.1439C67.7733 42.8893 68.5 40.2575 68.5 37.2679C68.5 34.2383 67.7741 31.5292 66.3111 29.1559C64.8482 26.7619 62.7534 24.8878 60.0449 23.5313C57.3478 22.1701 54.1467 21.5 50.4586 21.5C41.6449 21.5 34.5 28.6449 34.5 37.4586V61.5416C34.5 64.8324 37.1676 67.5 40.4584 67.5C43.7491 67.5 46.4167 64.8323 46.4167 61.5416Z" fill="white" stroke="#0D163F"/>
<defs>
<filter id="filter0_d_167_91" x="3" y="0" width="93" height="93" filterUnits="userSpaceOnUse" color-interpolation-filters="sRGB">
<feFlood flood-opacity="0" result="BackgroundImageFix"/>
<feColorMatrix in="SourceAlpha" type="matrix" values="0 0 0 0 0 0 0 0 0 0 0 0 0 0 0 0 0 0 127 0" result="hardAlpha"/>
<feOffset dy="4"/>
<feGaussianBlur stdDeviation="2"/>
<feComposite in2="hardAlpha" operator="out"/>
<feColorMatrix type="matrix" values="0 0 0 0 0 0 0 0 0 0 0 0 0 0 0 0 0 0 0.25 0"/>
<feBlend mode="normal" in2="BackgroundImageFix" result="effect1_dropShadow_167_91"/>
<feBlend mode="normal" in="SourceGraphic" in2="effect1_dropShadow_167_91" result="shape"/>
</filter>
<radialGradient id="paint0_radial_167_91" cx="0" cy="0" r="1" gradientUnits="userSpaceOnUse" gradientTransform="translate(51.5 37) rotate(90) scale(6 6.5)">
<stop stop-color="white"/>
<stop offset="1" stop-color="#999999"/>
</radialGradient>
<radialGradient id="paint1_radial_167_91" cx="0" cy="0" r="1" gradientUnits="userSpaceOnUse" gradientTransform="translate(51.5 37) rotate(90) scale(6 6.5)">
<stop stop-color="white"/>
<stop offset="1" stop-color="#999999"/>
</radialGradient>
</defs>
</svg>
